<svg width="46" height="46" viewBox="0 0 46 46" fill="none" xmlns="http://www.w3.org/2000/svg">
<rect x="0.5" y="0.5" width="45" height="45" rx="11.5" fill="white" fill-opacity="0.05"/>
<rect x="0.5" y="0.5" width="45" height="45" rx="11.5" stroke="url(#paint0_linear_1065_5924)"/>
<path d="M31 16H15V30L24.292 20.706C24.4795 20.5185 24.7338 20.4132 24.999 20.4132C25.2642 20.4132 25.5185 20.5185 25.706 20.706L31 26.01V16ZM13 14.993C13.0018 14.7304 13.1069 14.479 13.2925 14.2932C13.4781 14.1074 13.7294 14.0021 13.992 14H32.008C32.556 14 33 14.445 33 14.993V31.007C32.9982 31.2696 32.8931 31.521 32.7075 31.7068C32.5219 31.8926 32.2706 31.9979 32.008 32H13.992C13.7288 31.9997 13.4765 31.895 13.2905 31.7088C13.1045 31.5226 13 31.2702 13 31.007V14.993ZM19 22C18.4696 22 17.9609 21.7893 17.5858 21.4142C17.2107 21.0391 17 20.5304 17 20C17 19.4696 17.2107 18.9609 17.5858 18.5858C17.9609 18.2107 18.4696 18 19 18C19.5304 18 20.0391 18.2107 20.4142 18.5858C20.7893 18.9609 21 19.4696 21 20C21 20.5304 20.7893 21.0391 20.4142 21.4142C20.0391 21.7893 19.5304 22 19 22Z" fill="#838383"/>
<defs>
<linearGradient id="paint0_linear_1065_5924" x1="23" y1="0" x2="23" y2="46" gradientUnits="userSpaceOnUse">
<stop stop-color="white" stop-opacity="0.05"/>
<stop offset="1" stop-opacity="0"/>
</linearGradient>
</defs>
</svg>
