<svg width="20" height="20" viewBox="0 0 20 20" fill="none" xmlns="http://www.w3.org/2000/svg">
<path opacity="0.5" d="M15.6251 7.50008V8.08675C15.6251 8.79092 15.8251 9.47925 16.2017 10.0651L17.1251 11.5009C17.9676 12.8126 17.3242 14.5951 15.8584 15.0092C12.0282 16.0942 7.97192 16.0942 4.14172 15.0092C2.67588 14.5951 2.03255 12.8126 2.87505 11.5009L3.79839 10.0651C4.17636 9.47455 4.37681 8.78789 4.37588 8.08675V7.50008C4.37588 4.27841 6.89422 1.66675 10.0001 1.66675C13.1059 1.66675 15.6251 4.27841 15.6251 7.50008Z" fill="#818285"/>
<path d="M10.6248 5C10.6248 4.83424 10.559 4.67527 10.4418 4.55806C10.3245 4.44085 10.1656 4.375 9.99981 4.375C9.83405 4.375 9.67508 4.44085 9.55787 4.55806C9.44066 4.67527 9.37481 4.83424 9.37481 5V8.33333C9.37481 8.49909 9.44066 8.65806 9.55787 8.77528C9.67508 8.89249 9.83405 8.95833 9.99981 8.95833C10.1656 8.95833 10.3245 8.89249 10.4418 8.77528C10.559 8.65806 10.6248 8.49909 10.6248 8.33333V5ZM6.03564 15.4542C6.30793 16.2909 6.83805 17.0201 7.55006 17.5371C8.26207 18.0542 9.11944 18.3327 9.99939 18.3327C10.8793 18.3327 11.7367 18.0542 12.4487 17.5371C13.1607 17.0201 13.6909 16.2909 13.9631 15.4542C11.3423 15.9458 8.65731 15.9458 6.03564 15.4542Z" fill="#818285"/>
</svg>
