<svg width="20" height="20" viewBox="0 0 20 20" fill="none" xmlns="http://www.w3.org/2000/svg">
<path d="M15.6251 8.09175V7.50425C15.6251 4.28008 13.1051 1.66675 10.0001 1.66675C6.89505 1.66675 4.37505 4.28008 4.37505 7.50425V8.09175C4.37605 8.79304 4.17592 9.47992 3.79839 10.0709L2.87505 11.5084C2.03255 12.8209 2.67588 14.6051 4.14172 15.0201C7.97181 16.1059 12.0283 16.1059 15.8584 15.0201C17.3242 14.6051 17.9676 12.8209 17.1251 11.5092L16.2017 10.0717C15.8239 9.48084 15.6235 8.79396 15.6242 8.09258L15.6251 8.09175Z" stroke="#818285" stroke-width="2"/>
<path opacity="0.5" d="M6.25 15.8333C6.79583 17.29 8.26833 18.3333 10 18.3333C11.7317 18.3333 13.2042 17.29 13.75 15.8333M10 5V8.33333" stroke="#818285" stroke-width="2" stroke-linecap="round"/>
</svg>
