<svg width="16" height="16" viewBox="0 0 16 16" fill="none" xmlns="http://www.w3.org/2000/svg">
<g clip-path="url(#clip0_1096_6868)">
<mask id="mask0_1096_6868" style="mask-type:luminance" maskUnits="userSpaceOnUse" x="0" y="0" width="16" height="16">
<path d="M8 15.5C12.1421 15.5 15.5 12.1421 15.5 8C15.5 3.85786 12.1421 0.5 8 0.5C3.85786 0.5 0.5 3.85786 0.5 8C0.5 12.1421 3.85786 15.5 8 15.5Z" fill="white"/>
</mask>
<g mask="url(#mask0_1096_6868)">
<path d="M0.5 5.38965L7.91211 4.45801L15.5 5.38965V10.6045L7.95605 11.7002L0.5 10.6074V5.38965Z" fill="#D80027"/>
<path d="M0.5 0.5H15.5V5.38965H0.5V0.5Z" fill="#338AF3"/>
<path d="M0.5 10.6045H15.5V15.5H0.5V10.6045Z" fill="#6DA544"/>
<path d="M8.16402 10.1152C7.84213 10.1143 7.52468 10.0401 7.23578 9.89814C6.94688 9.75618 6.69414 9.55025 6.49675 9.29599C6.29936 9.04172 6.16251 8.74582 6.09661 8.43075C6.03071 8.11568 6.03748 7.78973 6.11642 7.47767C6.19535 7.16561 6.34437 6.87564 6.55215 6.62979C6.75993 6.38395 7.02101 6.18869 7.31555 6.05886C7.6101 5.92903 7.93036 5.86803 8.252 5.88051C8.57365 5.89298 8.88823 5.9786 9.17183 6.13086C8.80484 5.77219 8.34017 5.52978 7.83604 5.43401C7.3319 5.33823 6.81071 5.39333 6.33775 5.59242C5.86479 5.79151 5.4611 6.12573 5.17723 6.55322C4.89336 6.98071 4.74194 7.48245 4.74194 7.99561C4.74194 8.50876 4.89336 9.0105 5.17723 9.43799C5.4611 9.86548 5.86479 10.1997 6.33775 10.3988C6.81071 10.5979 7.3319 10.653 7.83604 10.5572C8.34017 10.4614 8.80484 10.219 9.17183 9.86035C8.86241 10.0281 8.51596 10.1157 8.16402 10.1152Z" fill="#EEEEEE"/>
<path d="M9.79297 6.53516L10.0742 7.32031L10.8301 6.95996L10.4727 7.71582L11.2607 7.99707L10.4697 8.27832L10.8301 9.03418L10.0742 8.67383L9.79297 9.46484L9.51172 8.67383L8.75586 9.03418L9.11621 8.27832L8.3252 7.99707L9.11621 7.71582L8.75586 6.95996L9.51172 7.32031L9.79297 6.53516Z" fill="#EEEEEE"/>
</g>
</g>
<defs>
<clipPath id="clip0_1096_6868">
<rect width="15" height="15" fill="white" transform="translate(0.5 0.5)"/>
</clipPath>
</defs>
</svg>
