<svg width="9" height="4" viewBox="0 0 9 4" fill="none" xmlns="http://www.w3.org/2000/svg">
<path fill-rule="evenodd" clip-rule="evenodd" d="M8.28967 0.138951C8.25761 0.10154 8.21849 0.0708141 8.17454 0.0485296C8.1306 0.0262454 8.08269 0.0128393 8.03357 0.00907803C7.98444 0.00531673 7.93505 0.0112743 7.88823 0.0266094C7.8414 0.0419445 7.79806 0.0663567 7.76067 0.0984511L4.50467 2.88895L1.24867 0.0984511C1.2116 0.0644996 1.16807 0.0383492 1.12069 0.0215549C1.0733 0.00476074 1.02303 -0.00233459 0.972847 0.000690937C0.922666 0.00371647 0.873605 0.0168009 0.828581 0.0391665C0.783558 0.061532 0.743492 0.0927222 0.710764 0.130882C0.678037 0.169042 0.653316 0.213393 0.638072 0.261299C0.622828 0.309204 0.61737 0.359686 0.622026 0.409742C0.626682 0.459798 0.641356 0.508407 0.665174 0.552679C0.688992 0.596951 0.721468 0.635982 0.760672 0.667451L4.26067 3.66745C4.32863 3.72568 4.41518 3.75769 4.50467 3.75769C4.59417 3.75769 4.68071 3.72568 4.74867 3.66745L8.24867 0.667451C8.32408 0.602709 8.3707 0.51068 8.3783 0.411583C8.38589 0.312486 8.35384 0.214427 8.28917 0.138951H8.28967Z" fill="#636363"/>
</svg>
