<svg width="26" height="25" viewBox="0 0 26 25" fill="none" xmlns="http://www.w3.org/2000/svg">
<path d="M12.9999 22.9166C18.7529 22.9166 23.4166 18.2529 23.4166 12.4999C23.4166 6.74695 18.7529 2.08325 12.9999 2.08325C7.24695 2.08325 2.58325 6.74695 2.58325 12.4999C2.58325 18.2529 7.24695 22.9166 12.9999 22.9166Z" stroke="white" stroke-opacity="0.25" stroke-width="2"/>
<path d="M14.0667 15.1667C11.6604 16.1292 10.4573 16.6104 9.77084 16.1438C9.60773 16.033 9.46706 15.8923 9.35626 15.7292C8.88959 15.0417 9.37084 13.8396 10.3333 11.4333C10.5386 10.9198 10.6406 10.6625 10.8177 10.4615C10.8625 10.4104 10.9115 10.3625 10.9625 10.3177C11.1636 10.1406 11.4208 10.0386 11.9333 9.83334C14.3396 8.87084 15.5417 8.38959 16.2292 8.85626C16.3923 8.96706 16.533 9.10773 16.6438 9.27084C17.1104 9.95834 16.6292 11.1604 15.6667 13.5667C15.4615 14.0802 15.3583 14.3365 15.1823 14.5375C15.1373 14.5889 15.0889 14.6373 15.0375 14.6823C14.8365 14.8594 14.5792 14.9615 14.0667 15.1667Z" stroke="white" stroke-opacity="0.25" stroke-width="2"/>
</svg>
