<svg width="19" height="10" viewBox="0 0 19 10" fill="none" xmlns="http://www.w3.org/2000/svg">
<path d="M1.74161 0.587522C1.67641 0.435022 1.5533 0.314669 1.39936 0.252938C1.24543 0.191207 1.07327 0.193156 0.920774 0.258355C0.768274 0.323554 0.647921 0.446663 0.58619 0.600599C0.524459 0.754535 0.526408 0.926689 0.591607 1.07919L1.74161 0.587522ZM7.03411 6.44836C7.08075 6.3796 7.11322 6.30223 7.12961 6.22078C7.146 6.13933 7.14599 6.05543 7.12957 5.97398C7.11315 5.89254 7.08066 5.81518 7.03399 5.74644C6.98733 5.6777 6.92743 5.61895 6.85779 5.57363C6.78815 5.52832 6.71018 5.49734 6.62842 5.48251C6.54667 5.46768 6.46279 5.46931 6.38167 5.48728C6.30055 5.50526 6.22384 5.53923 6.156 5.5872C6.08817 5.63518 6.03058 5.6962 5.98661 5.76669L7.03411 6.44836ZM4.80911 7.57586C4.76435 7.64469 4.73359 7.72167 4.71858 7.80239C4.70357 7.88311 4.7046 7.966 4.72163 8.04633C4.75601 8.20854 4.85342 8.35046 4.99244 8.44086C5.13146 8.53125 5.30069 8.56272 5.46291 8.52834C5.54323 8.51131 5.61941 8.47863 5.68711 8.43217C5.7548 8.3857 5.81268 8.32636 5.85744 8.25752L4.80911 7.57586ZM18.4083 1.07919C18.4665 0.928218 18.4638 0.760563 18.401 0.611484C18.3381 0.462405 18.2198 0.343522 18.0711 0.279839C17.9224 0.216156 17.7547 0.212635 17.6034 0.270018C17.4522 0.3274 17.329 0.441215 17.2599 0.587522L18.4083 1.07919ZM16.1416 5.96669C16.1988 6.02809 16.2678 6.07735 16.3445 6.11151C16.4212 6.14567 16.5039 6.16404 16.5878 6.16552C16.6718 6.167 16.7551 6.15156 16.8329 6.12012C16.9108 6.08869 16.9815 6.0419 17.0408 5.98255C17.1002 5.92321 17.1469 5.85251 17.1784 5.77469C17.2098 5.69686 17.2252 5.61351 17.2238 5.52959C17.2223 5.44567 17.2039 5.36291 17.1698 5.28624C17.1356 5.20957 17.0863 5.14057 17.0249 5.08336L16.1416 5.96669ZM8.87494 8.75002C8.87494 8.91578 8.94079 9.07475 9.058 9.19197C9.17521 9.30918 9.33418 9.37502 9.49994 9.37502C9.6657 9.37502 9.82467 9.30918 9.94188 9.19197C10.0591 9.07475 10.1249 8.91578 10.1249 8.75002H8.87494ZM13.1424 8.25752C13.2328 8.39654 13.3748 8.49395 13.537 8.52834C13.6992 8.56272 13.8684 8.53125 14.0074 8.44086C14.1465 8.35046 14.2439 8.20854 14.2783 8.04633C14.3126 7.88411 14.2812 7.71487 14.1908 7.57586L13.1424 8.25752ZM4.10911 4.71586C4.2194 4.59727 4.27935 4.44051 4.27635 4.27859C4.27334 4.11668 4.2076 3.96225 4.09298 3.84785C3.97836 3.73344 3.82381 3.668 3.66189 3.66529C3.49996 3.66259 3.34331 3.72284 3.22494 3.83336L4.10827 4.71669L4.10911 4.71586ZM1.97494 5.08252C1.86454 5.201 1.80444 5.35771 1.80729 5.51962C1.81015 5.68154 1.87574 5.83603 1.99026 5.95054C2.10477 6.06505 2.25925 6.13064 2.42117 6.1335C2.58309 6.13636 2.73979 6.07626 2.85827 5.96586L1.97494 5.08336V5.08252ZM9.49994 6.04169C6.81327 6.04169 4.88411 4.70419 3.60411 3.32502C3.06637 2.74288 2.59101 2.10608 2.18577 1.42502C2.03296 1.16884 1.89198 0.905787 1.76327 0.636688C1.75707 0.623119 1.75096 0.609508 1.74494 0.595855L1.74161 0.587522L1.74077 0.586688L1.16661 0.833355C0.974535 0.91463 0.782866 0.99602 0.591607 1.07919L0.59244 1.08002L0.593274 1.08252L0.595774 1.08752C0.606576 1.11211 0.617688 1.13655 0.629107 1.16086C0.776103 1.46931 0.937389 1.77075 1.11244 2.06419C1.45411 2.63919 1.97411 3.40586 2.68744 4.17502C4.11661 5.71252 6.35327 7.29169 9.49994 7.29169V6.04169ZM12.2608 5.52586C11.4524 5.84502 10.5349 6.04169 9.49994 6.04169V7.29169C10.6983 7.29169 11.7708 7.06169 12.7183 6.68919L12.2608 5.52586ZM5.98661 5.76669L4.80911 7.57586L5.85744 8.25669L7.03411 6.44836L5.98661 5.76586V5.76669ZM17.8333 0.833355L17.2583 0.586688H17.2591V0.588355L17.2533 0.599188C17.2132 0.687032 17.1713 0.773997 17.1274 0.860022C16.5579 1.96366 15.8069 2.9637 14.9058 3.81836L15.7608 4.73002C16.8338 3.71223 17.715 2.50975 18.3624 1.18002L18.3949 1.10919L18.4033 1.08919L18.4066 1.08336V1.08086L18.4074 1.08002L17.8333 0.833355ZM14.9058 3.81836C14.1891 4.49002 13.3116 5.11169 12.2608 5.52586L12.7183 6.68919C13.9458 6.20586 14.9558 5.48586 15.7608 4.73002L14.9058 3.81836ZM14.8916 4.71586L16.1416 5.96669L17.0249 5.08252L15.7749 3.83252L14.8916 4.71586ZM8.87494 6.66669V8.75002H10.1249V6.66669H8.87494ZM11.9658 6.44836L13.1424 8.25752L14.1908 7.57586L13.0133 5.76669L11.9658 6.44836ZM3.22411 3.83169L1.97411 5.08169L2.85827 5.96586L4.10827 4.71669L3.22494 3.83336L3.22411 3.83169Z" fill="#7F7F7F"/>
</svg>
