<svg width="16" height="16" viewBox="0 0 16 16" fill="none" xmlns="http://www.w3.org/2000/svg">
<g id="Frame" clip-path="url(#clip0_1096_6890)">
<g id="Mask group">
<mask id="mask0_1096_6890" style="mask-type:luminance" maskUnits="userSpaceOnUse" x="0" y="0" width="16" height="16">
<g id="Group">
<path id="Vector" d="M8 15.5C12.1421 15.5 15.5 12.1421 15.5 8C15.5 3.85786 12.1421 0.5 8 0.5C3.85786 0.5 0.5 3.85786 0.5 8C0.5 12.1421 3.85786 15.5 8 15.5Z" fill="white"/>
</g>
</mask>
<g mask="url(#mask0_1096_6890)">
<g id="Group_2">
<path id="Vector_2" d="M5.39258 0.5H10.6074L11.3662 7.8916L10.6074 15.5H5.39258L4.51953 8.07617L5.39258 0.5Z" fill="#EEEEEE"/>
<path id="Vector_3" d="M0.5 0.5H5.39258V15.5H0.5V0.5Z" fill="#0052B4"/>
<path id="Vector_4" d="M10.6074 0.5H15.5V15.5H10.6074V0.5Z" fill="#D80027"/>
</g>
</g>
</g>
</g>
<defs>
<clipPath id="clip0_1096_6890">
<rect width="15" height="15" fill="white" transform="translate(0.5 0.5)"/>
</clipPath>
</defs>
</svg>
