<svg width="16" height="16" viewBox="0 0 16 16" fill="none" xmlns="http://www.w3.org/2000/svg">
<g clip-path="url(#clip0_1004_374)">
<mask id="mask0_1004_374" style="mask-type:luminance" maskUnits="userSpaceOnUse" x="0" y="0" width="16" height="16">
<path d="M8 15.5C12.1421 15.5 15.5 12.1421 15.5 8C15.5 3.85786 12.1421 0.5 8 0.5C3.85786 0.5 0.5 3.85786 0.5 8C0.5 12.1421 3.85786 15.5 8 15.5Z" fill="white"/>
</mask>
<g mask="url(#mask0_1004_374)">
<path d="M0.5 0.5H7.0625L8 1.4375L8.9375 0.5H15.5V7.0625L14.5625 8L15.5 8.9375V15.5H8.9375L8 14.5625L7.0625 15.5H0.5V8.9375L1.4375 8L0.5 7.0625V0.5Z" fill="#EEEEEE"/>
<path d="M7.0625 0.5V7.0625H0.5V8.9375H7.0625V15.5H8.9375V8.9375H15.5V7.0625H8.9375V0.5H7.0625ZM4.25 3.3125V4.25H3.3125V5.1875H4.25V6.125H5.1875V5.1875H6.125V4.25H5.1875V3.3125H4.25ZM10.8125 3.3125V4.25H9.875V5.1875H10.8125V6.125H11.75V5.1875H12.6875V4.25H11.75V3.3125H10.8125ZM4.25 9.875V10.8125H3.3125V11.75H4.25V12.6875H5.1875V11.75H6.125V10.8125H5.1875V9.875H4.25ZM10.8125 9.875V10.8125H9.875V11.75H10.8125V12.6875H11.75V11.75H12.6875V10.8125H11.75V9.875H10.8125Z" fill="#D80027"/>
</g>
</g>
<defs>
<clipPath id="clip0_1004_374">
<rect width="15" height="15" fill="white" transform="translate(0.5 0.5)"/>
</clipPath>
</defs>
</svg>
