<svg width="16" height="16" viewBox="0 0 16 16" fill="none" xmlns="http://www.w3.org/2000/svg">
<g clip-path="url(#clip0_1004_393)">
<mask id="mask0_1004_393" style="mask-type:luminance" maskUnits="userSpaceOnUse" x="0" y="0" width="16" height="16">
<path d="M8 15.5C12.1421 15.5 15.5 12.1421 15.5 8C15.5 3.85786 12.1421 0.5 8 0.5C3.85786 0.5 0.5 3.85786 0.5 8C0.5 12.1421 3.85786 15.5 8 15.5Z" fill="white"/>
</mask>
<g mask="url(#mask0_1004_393)">
<path d="M0.5 0.5H3.40039L4.25 1.4375L5.07031 0.5H15.5V2.16992L14.5625 2.99023L15.5 3.83984V5.50977L14.5625 6.33008L15.5 7.17969V8.84961L14.5625 9.66992L15.5 10.4902V12.1602L14.5625 13.0098L15.5 13.8301V15.5H0.5V13.8301L1.4375 13.0098L0.5 12.1602V10.5195L1.4375 9.66992L0.5 8.84961V5.50977L1.4375 4.66016L0.5 3.83984V0.5Z" fill="#0052B4"/>
<path d="M3.40039 0.5V3.83984H0.5V5.50977H3.40039V8.84961H0.5V10.5195H15.5V8.84961H5.07031V5.50977H8V3.83984H5.07031V0.5H3.40039ZM8 2.16992V3.83984H15.5V2.16992H8ZM8 5.50977V7.17969H15.5V5.50977H8ZM0.5 12.1602V13.8301H15.5V12.1602H0.5Z" fill="#EEEEEE"/>
</g>
</g>
<defs>
<clipPath id="clip0_1004_393">
<rect width="15" height="15" fill="white" transform="translate(0.5 0.5)"/>
</clipPath>
</defs>
</svg>
