<svg width="26" height="25" viewBox="0 0 26 25" fill="none" xmlns="http://www.w3.org/2000/svg">
<path d="M2.96248 13.4978C2.56665 10.751 2.36873 9.377 2.93228 8.20304C3.49478 7.02909 4.69373 6.3145 7.09061 4.88742L8.53332 4.02804C10.7083 2.73117 11.7979 2.08325 13 2.08325C14.2021 2.08325 15.2906 2.73117 17.4666 4.02804L18.9094 4.88742C21.3052 6.3145 22.5042 7.02909 23.0677 8.20304C23.6302 9.377 23.4323 10.751 23.0364 13.4978L22.7469 15.5155C22.2396 19.0447 21.9854 20.8083 20.7614 21.8624C19.5375 22.9166 17.7427 22.9166 14.1521 22.9166H11.8479C8.25728 22.9166 6.46248 22.9166 5.23853 21.8624C4.01457 20.8083 3.7604 19.0447 3.25311 15.5155L2.96248 13.4978Z" stroke="white" stroke-opacity="0.25" stroke-width="2"/>
<path d="M9.875 16.6665C10.7604 17.3228 11.8385 17.7082 13 17.7082C14.1615 17.7082 15.2396 17.3228 16.125 16.6665" stroke="white" stroke-opacity="0.25" stroke-width="2" stroke-linecap="round"/>
</svg>
