<svg width="23" height="18" viewBox="0 0 23 18" fill="none" xmlns="http://www.w3.org/2000/svg">
<path d="M1.5 9C1.5 5.229 1.5 3.343 2.672 2.172C3.843 1 5.729 1 9.5 1H13.5C17.271 1 19.157 1 20.328 2.172C21.5 3.343 21.5 5.229 21.5 9C21.5 12.771 21.5 14.657 20.328 15.828C19.157 17 17.271 17 13.5 17H9.5C5.729 17 3.843 17 2.672 15.828C1.5 14.657 1.5 12.771 1.5 9Z" stroke="#7F7F7F" stroke-width="2"/>
<path d="M5.5 5L7.659 6.8C9.496 8.33 10.414 9.095 11.5 9.095C12.586 9.095 13.505 8.33 15.341 6.799L17.5 5" stroke="#7F7F7F" stroke-width="2" stroke-linecap="round"/>
</svg>
