<svg width="24" height="24" viewBox="0 0 24 24" fill="none" xmlns="http://www.w3.org/2000/svg">
<g clip-path="url(#clip0_1069_7800)">
<path d="M24.505 23.926V23.925H24.511V15.123C24.511 10.817 23.584 7.5 18.55 7.5C16.13 7.5 14.506 8.828 13.843 10.087H13.773V7.902H9V23.925H13.97V15.991C13.97 13.902 14.366 11.882 16.953 11.882C19.502 11.882 19.54 14.266 19.54 16.125V23.926H24.505Z" fill="white"/>
<path d="M0.395996 7.97754H5.372V24.0005H0.395996V7.97754Z" fill="white"/>
<path d="M2.882 0C1.291 0 0 1.291 0 2.882C0 4.473 1.291 5.791 2.882 5.791C4.473 5.791 5.764 4.473 5.764 2.882C5.763 1.291 4.472 0 2.882 0V0Z" fill="white"/>
</g>
<defs>
<clipPath id="clip0_1069_7800">
<rect width="24" height="24" fill="white"/>
</clipPath>
</defs>
</svg>
