<svg width="26" height="25" viewBox="0 0 26 25" fill="none" xmlns="http://www.w3.org/2000/svg">
<path d="M17.1667 4.1687C19.4323 4.1812 20.6594 4.28224 21.4594 5.08224C22.375 5.99787 22.375 7.47079 22.375 10.4166V16.6666C22.375 19.6135 22.375 21.0864 21.4594 22.002C20.5448 22.9166 19.0708 22.9166 16.125 22.9166H9.875C6.92917 22.9166 5.45521 22.9166 4.54062 22.002C3.625 21.0854 3.625 19.6135 3.625 16.6666V10.4166C3.625 7.47079 3.625 5.99787 4.54062 5.08224C5.34062 4.28224 6.56771 4.1812 8.83333 4.1687" stroke="#535559" stroke-width="2"/>
<path d="M11.4376 14.5833H18.2084M7.79175 14.5833H8.31258M7.79175 10.9375H8.31258M7.79175 18.2292H8.31258M11.4376 10.9375H18.2084M11.4376 18.2292H18.2084" stroke="#535559" stroke-width="2" stroke-linecap="round"/>
<path d="M8.83325 3.64575C8.83325 3.23135 8.99787 2.83392 9.2909 2.5409C9.58392 2.24787 9.98135 2.08325 10.3958 2.08325H15.6041C16.0185 2.08325 16.4159 2.24787 16.7089 2.5409C17.002 2.83392 17.1666 3.23135 17.1666 3.64575V4.68742C17.1666 5.10182 17.002 5.49925 16.7089 5.79227C16.4159 6.0853 16.0185 6.24992 15.6041 6.24992H10.3958C9.98135 6.24992 9.58392 6.0853 9.2909 5.79227C8.99787 5.49925 8.83325 5.10182 8.83325 4.68742V3.64575Z" stroke="#535559" stroke-width="2"/>
</svg>
