<svg width="26" height="25" viewBox="0 0 26 25" fill="none" xmlns="http://www.w3.org/2000/svg">
<path d="M21.526 18.4895C21.7332 18.4895 21.9319 18.4072 22.0784 18.2607C22.225 18.1142 22.3073 17.9155 22.3073 17.7083C22.3073 17.5011 22.225 17.3023 22.0784 17.1558C21.9319 17.0093 21.7332 16.927 21.526 16.927V18.4895ZM14.5416 22.1489C14.5076 22.2466 14.4934 22.3501 14.4997 22.4534C14.5061 22.5566 14.5328 22.6576 14.5785 22.7505C14.6242 22.8433 14.6879 22.9261 14.7658 22.9942C14.8438 23.0622 14.9345 23.1141 15.0326 23.1468C15.1308 23.1795 15.2345 23.1924 15.3376 23.1847C15.4408 23.177 15.5415 23.1488 15.6337 23.1019C15.7259 23.055 15.8079 22.9903 15.8749 22.9114C15.9419 22.8326 15.9925 22.7412 16.0239 22.6426L14.5416 22.1489ZM4.66456 16.927C4.45736 16.927 4.25865 17.0093 4.11214 17.1558C3.96562 17.3023 3.88331 17.5011 3.88331 17.7083C3.88331 17.9155 3.96562 18.1142 4.11214 18.2607C4.25865 18.4072 4.45736 18.4895 4.66456 18.4895V16.927ZM10.1656 22.6426C10.2331 22.8366 10.3743 22.9963 10.5586 23.0869C10.7429 23.1776 10.9555 23.1921 11.1504 23.1271C11.3453 23.0622 11.5067 22.9232 11.5998 22.7401C11.693 22.557 11.7102 22.3446 11.6479 22.1489L10.1656 22.6426ZM6.28748 5.68742C6.23388 5.48726 6.10297 5.3166 5.92354 5.21296C5.74411 5.10933 5.53086 5.08122 5.33071 5.13481C5.13055 5.18841 4.95989 5.31932 4.85625 5.49875C4.75262 5.67818 4.72451 5.89143 4.7781 6.09159L6.28748 5.68742ZM2.19477 12.4874C2.10921 12.5441 2.03563 12.617 1.97826 12.702C1.92088 12.7871 1.88082 12.8826 1.86036 12.9832C1.8399 13.0837 1.83945 13.1873 1.85902 13.2881C1.8786 13.3888 1.91783 13.4847 1.97446 13.5702C2.03109 13.6558 2.10402 13.7294 2.18909 13.7867C2.27415 13.8441 2.36969 13.8842 2.47024 13.9046C2.57079 13.9251 2.67438 13.9256 2.7751 13.906C2.87583 13.8864 2.97171 13.8472 3.05727 13.7905L2.19477 12.4874ZM21.2646 6.09159C21.2911 5.99248 21.2979 5.88911 21.2844 5.7874C21.271 5.68568 21.2377 5.5876 21.1864 5.49875C21.1351 5.40991 21.0668 5.33204 20.9854 5.2696C20.904 5.20715 20.8111 5.16135 20.712 5.13481C20.5118 5.08122 20.2986 5.10933 20.1191 5.21296C20.0303 5.26428 19.9524 5.33259 19.89 5.414C19.8275 5.4954 19.7817 5.58831 19.7552 5.68742L21.2646 6.09159ZM22.9854 13.7905C23.1582 13.9049 23.3694 13.946 23.5724 13.9046C23.7755 13.8633 23.9538 13.743 24.0682 13.5702C24.1826 13.3974 24.2236 13.1863 24.1823 12.9832C24.141 12.7801 24.0207 12.6018 23.8479 12.4874L22.9854 13.7905ZM17.2604 3.99575C17.4266 3.87516 17.5386 3.694 17.5723 3.49144C17.6059 3.28888 17.5585 3.08122 17.4402 2.91337C17.3219 2.74553 17.1423 2.631 16.9402 2.59457C16.7382 2.55813 16.5299 2.60271 16.3604 2.71867L17.2604 3.99575ZM9.47498 2.49679C9.39274 2.43249 9.29845 2.38531 9.19768 2.35806C9.09691 2.33081 8.99169 2.32403 8.88826 2.33812C8.78482 2.35222 8.68525 2.3869 8.59544 2.44012C8.50564 2.49334 8.4274 2.56402 8.36537 2.64799C8.30334 2.73195 8.25876 2.82749 8.23428 2.92898C8.20979 3.03046 8.20589 3.13582 8.22281 3.23883C8.23973 3.34184 8.27712 3.44042 8.33278 3.52874C8.38843 3.61706 8.46123 3.69333 8.54685 3.75304L9.47394 2.49679H9.47498ZM15.8948 11.8405L15.1489 12.0718L15.8948 11.8416V11.8405ZM10.0812 11.8405L10.8271 12.0718L10.0812 11.8416V11.8405ZM22.6114 12.4999C22.6114 17.8228 18.3021 22.1353 12.9875 22.1353V23.6978C19.1666 23.6978 24.1739 18.6833 24.1739 12.4999H22.6114ZM12.9875 22.1353C7.67394 22.1353 3.36456 17.8228 3.36456 12.4999H1.80206C1.80206 18.6833 6.80935 23.6978 12.9885 23.6978V22.1353H12.9875ZM3.36456 12.4999C3.36456 7.177 7.67394 2.8645 12.9885 2.8645V1.302C6.80831 1.302 1.80206 6.31659 1.80206 12.4999H3.36456ZM12.9885 2.8645C18.301 2.8645 22.6114 7.177 22.6114 12.4999H24.1739C24.1739 6.31659 19.1666 1.302 12.9875 1.302V2.8645H12.9885ZM13.1448 10.4791L15.0583 11.9416L16.0073 10.701L14.0937 9.23742L13.1458 10.478L13.1448 10.4791ZM15.1489 12.226L14.3969 14.6603L15.8906 15.1208L16.6406 12.6864L15.1489 12.226ZM14.1489 14.8437H11.826V16.4062H14.1489V14.8437ZM11.5791 14.6603L10.8271 12.226L9.33435 12.6864L10.0854 15.1208L11.5791 14.6603ZM10.9166 11.9416L12.8302 10.478L11.8812 9.23742L9.96769 10.701L10.9166 11.9416ZM21.526 16.927H19.8437V18.4895H21.526V16.927ZM15.1541 20.3103L14.5416 22.1489L16.0239 22.6426L16.6354 20.8041L15.1541 20.3103ZM19.8437 16.927C19.1375 16.927 18.5406 16.926 18.0562 16.9812C17.5521 17.0385 17.0885 17.1645 16.6687 17.4676L17.5833 18.7353C17.7083 18.6447 17.8791 18.5739 18.2344 18.5333C18.6094 18.4916 19.101 18.4895 19.8437 18.4895V16.927ZM16.6354 20.8041C16.8708 20.0999 17.026 19.6333 17.1864 19.2905C17.3364 18.9655 17.4583 18.8249 17.5833 18.7353L16.6687 17.4676C16.2479 17.7718 15.9823 18.1708 15.7687 18.6322C15.5625 19.0749 15.3771 19.6405 15.1541 20.3103L16.6354 20.8041ZM4.6656 18.4895H6.3479V16.927H4.66456V18.4895H4.6656ZM9.55519 20.8041L10.1656 22.6426L11.6489 22.1489L11.0375 20.3103L9.55519 20.8041ZM6.3479 18.4895C7.0906 18.4895 7.58019 18.4905 7.95623 18.5333C8.3104 18.5749 8.48227 18.6447 8.60727 18.7353L9.52185 17.4676C9.10102 17.1655 8.63748 17.0385 8.13331 16.9812C7.64894 16.926 7.0531 16.927 6.3479 16.927V18.4895ZM11.0375 20.3103C10.8135 19.6405 10.6271 19.0749 10.4208 18.6322C10.2073 18.1718 9.94165 17.7718 9.52185 17.4676L8.60727 18.7353C8.73227 18.8249 8.8531 18.9645 9.00415 19.2905C9.16352 19.6343 9.31977 20.0999 9.55519 20.8041L11.0375 20.3103ZM4.7781 6.09159L5.21352 7.71763L6.7229 7.31346L6.28748 5.68742L4.7781 6.09159ZM3.8104 11.4197L2.19581 12.4874L3.05727 13.7905L4.67185 12.7228L3.8104 11.4197ZM5.21352 7.71763C5.40519 8.43534 5.53123 8.91034 5.58748 9.28429C5.63956 9.63846 5.6156 9.82388 5.56144 9.96763L7.0229 10.5218C7.20623 10.0364 7.20727 9.55721 7.13227 9.05409C7.0604 8.57179 6.90519 7.99575 6.7229 7.31346L5.21352 7.71763ZM4.67185 12.7228C5.26144 12.3333 5.75831 12.0062 6.13227 11.6926C6.52185 11.3666 6.83852 11.0062 7.0229 10.5218L5.56144 9.96763C5.50727 10.1114 5.4031 10.2655 5.1281 10.4958C4.83852 10.7385 4.43019 11.0103 3.8104 11.4197L4.67185 12.7228ZM19.7552 5.68742L19.3198 7.31346L20.8291 7.71763L21.2646 6.09159L19.7552 5.68742ZM21.3708 12.7228L22.9854 13.7905L23.8479 12.4874L22.2323 11.4197L21.3708 12.7228ZM19.3198 7.31346C19.1375 7.99679 18.9823 8.57179 18.9104 9.05409C18.8354 9.55721 18.8364 10.0374 19.0198 10.5218L20.4812 9.96763C20.4271 9.82388 20.4031 9.6395 20.4552 9.28429C20.5114 8.90929 20.6375 8.43534 20.8291 7.71763L19.3198 7.31346ZM22.2323 11.4197C21.6125 11.0103 21.2041 10.7385 20.9146 10.4958C20.6396 10.2666 20.5354 10.1114 20.4812 9.96763L19.0198 10.5218C19.2041 11.0062 19.5208 11.3666 19.9104 11.6926C20.2844 12.0062 20.7812 12.3343 21.3708 12.7239L22.2323 11.4197ZM16.3604 2.71867L14.9854 3.6895L15.8854 4.96554L17.2604 3.99575L16.3604 2.71867ZM11.0323 3.64575L9.47394 2.49679L8.54685 3.75409L10.1041 4.90304L11.0323 3.64575ZM14.9844 3.6895C14.3781 4.11659 13.976 4.39888 13.6448 4.58013C13.3302 4.752 13.15 4.79263 12.9969 4.79159L12.9791 6.35409C13.4979 6.35929 13.9479 6.19471 14.3948 5.95096C14.8219 5.71659 15.3083 5.37284 15.8844 4.96554L14.9844 3.6895ZM10.1041 4.90304C10.6729 5.32284 11.151 5.677 11.5729 5.92075C12.0135 6.17388 12.4614 6.34784 12.9791 6.35409L12.9969 4.79159C12.8427 4.7895 12.6635 4.74471 12.3531 4.56659C12.025 4.37804 11.6291 4.08638 11.0323 3.64575L10.1041 4.90304ZM15.0583 11.9416C15.1014 11.9745 15.1331 12.02 15.1489 12.0718L16.6416 11.6103C16.5297 11.2487 16.308 10.9309 16.0073 10.701L15.0583 11.9416ZM15.1489 12.0718C15.1645 12.122 15.1645 12.1758 15.1489 12.226L16.6416 12.6864C16.7499 12.3359 16.7499 11.9608 16.6416 11.6103L15.1489 12.0718ZM19.451 9.52284L15.5969 11.1197L16.1937 12.5635L20.05 10.9666L19.451 9.52284ZM14.0937 9.23742C13.7762 8.99418 13.3874 8.86238 12.9875 8.86242V10.4249C13.0446 10.4245 13.1001 10.4436 13.1448 10.4791L14.0937 9.23742ZM12.9875 8.86242C12.5989 8.86242 12.2083 8.98742 11.8823 9.23742L12.8302 10.478C12.8757 10.4436 12.9314 10.4253 12.9885 10.426V8.86346L12.9875 8.86242ZM13.7687 9.64367V5.57284H12.2062V9.64367H13.7687ZM14.3969 14.6603C14.3815 14.711 14.351 14.7557 14.3094 14.7885L15.276 16.0155C15.567 15.7866 15.7814 15.4745 15.8906 15.1208L14.3969 14.6603ZM14.3094 14.7885C14.264 14.8243 14.2078 14.8438 14.15 14.8437V16.4062C14.5687 16.4062 14.9625 16.2624 15.276 16.0155L14.3094 14.7885ZM17.7177 17.5905L15.3844 14.8905L14.2021 15.9135L16.5354 18.6124L17.7177 17.5905ZM11.826 14.8437C11.7682 14.8438 11.712 14.8243 11.6666 14.7885L10.7 16.0155C11.0125 16.2624 11.4073 16.4062 11.826 16.4062V14.8437ZM11.6666 14.7885C11.625 14.7557 11.5945 14.711 11.5791 14.6603L10.0854 15.1208C10.1979 15.4843 10.4156 15.7926 10.7 16.0166L11.6666 14.7885ZM9.67706 18.5833L11.7979 15.8833L10.5687 14.9187L8.44894 17.6176L9.67706 18.5833ZM10.8271 12.2249C10.8115 12.1747 10.8115 12.122 10.8271 12.0718L9.33435 11.6093C9.22608 11.9598 9.22608 12.3359 9.33435 12.6864L10.8271 12.2249ZM10.8271 12.0718C10.8429 12.02 10.8746 11.9734 10.9177 11.9405L9.96873 10.701C9.66793 10.9308 9.4462 11.2476 9.33435 11.6093L10.8271 12.0718ZM10.3844 11.1208L6.59581 9.52492L5.98852 10.9645L9.77706 12.5614L10.3844 11.1218V11.1208Z" fill="white" fill-opacity="0.25"/>
</svg>
