<svg width="118" height="35" viewBox="0 0 118 35" fill="none" xmlns="http://www.w3.org/2000/svg">
<g id="Group">
<g id="Group_2">
<g id="Group_3">
<g id="Group_4">
<path id="Vector" d="M79.1627 8.20898H74.3621V26.9795H79.1627V8.20898Z" fill="white"/>
<path id="Vector_2" d="M66.8731 0.768066H62.1204V8.11306H56.4076L54.1993 12.8657H62.1204V18.5785C62.1204 19.7306 62.3604 20.8348 62.7925 21.8429C63.2246 22.8511 63.8486 23.7632 64.6168 24.5313C65.3849 25.2994 66.249 25.8755 67.3051 26.3555C68.3133 26.7876 69.4174 27.0276 70.5696 27.0276H72.8259V22.275H70.5696C70.0895 22.275 69.6094 22.179 69.1294 21.9869C68.6973 21.7949 68.3133 21.5549 67.9772 21.2188C67.6412 20.8828 67.4011 20.4987 67.2091 20.0667C67.0171 19.6346 66.9211 19.1546 66.9211 18.6745V13.1057H72.7779V8.35309H66.9211V0.768066H66.8731Z" fill="white"/>
<path id="Vector_3" d="M117.52 18.7703C117.184 18.0982 116.8 17.4741 116.224 16.994C115.696 16.514 115.072 16.1299 114.352 15.8419C113.631 15.5538 112.863 15.4098 112.047 15.4098H107.055C106.719 15.4098 106.431 15.3138 106.19 15.0738C105.95 14.8337 105.854 14.5457 105.854 14.2096C105.854 13.8736 105.95 13.5856 106.19 13.3455C106.431 13.1055 106.719 13.0095 107.055 13.0095H116.752V8.25684H107.055C106.239 8.25684 105.47 8.40086 104.75 8.7369C104.03 9.02494 103.406 9.457 102.878 9.98507C102.35 10.5131 101.918 11.1372 101.63 11.8573C101.342 12.5774 101.15 13.3455 101.15 14.1616C101.15 14.9777 101.294 15.7459 101.63 16.466C101.918 17.186 102.35 17.8101 102.878 18.3862C103.406 18.9143 104.03 19.3463 104.75 19.6824C105.47 20.0184 106.239 20.1625 107.055 20.1625H112.047C112.383 20.1625 112.671 20.2105 112.863 20.3065C113.103 20.4025 113.199 20.6425 113.199 20.9786C113.199 21.3146 113.103 21.6026 112.863 21.7947C112.623 22.0347 112.335 22.1307 112.047 22.1307H101.102V26.8834H112.047C112.863 26.8834 113.631 26.7393 114.352 26.4033C115.072 26.1153 115.696 25.6832 116.224 25.1071C116.752 24.5791 117.184 23.955 117.52 23.2349C117.856 22.5148 118 21.7467 118 20.9306C118 20.2105 117.856 19.4424 117.52 18.7703Z" fill="white"/>
<path id="Vector_4" d="M97.3092 10.2735C96.4451 9.40936 95.4369 8.73727 94.2848 8.25721C93.1326 7.77714 91.8845 7.53711 90.5883 7.53711C89.9642 7.53711 89.3881 7.63312 88.764 7.77714C88.1879 7.92116 87.6119 8.11319 87.0358 8.40123C86.4597 8.64126 85.9316 8.97731 85.4516 9.36136C84.9235 9.74541 84.4434 10.1295 84.0114 10.5135L82.0911 8.25721H80.939V34.1327H85.7396V25.7316C86.1237 25.9236 86.4597 26.1636 86.8918 26.3557C87.2758 26.5477 87.6599 26.7397 88.0919 26.8837C88.476 27.0278 88.908 27.1718 89.3401 27.2678C89.7722 27.3638 90.1562 27.4118 90.5883 27.4118C91.8845 27.4118 93.1326 27.1718 94.2848 26.7397C95.4369 26.3077 96.4451 25.6356 97.3092 24.7715C98.1733 23.9073 98.8454 22.8512 99.3735 21.651C99.8535 20.4029 100.142 19.0107 100.142 17.4745C100.142 15.9863 99.9015 14.6421 99.3735 13.4419C98.8934 12.1457 98.2213 11.1376 97.3092 10.2735ZM94.9569 19.5387C94.7168 20.1628 94.3808 20.6909 93.9487 21.171C93.5167 21.603 92.9886 21.9391 92.4125 22.2271C91.8364 22.4671 91.2124 22.6112 90.5403 22.6112C89.8682 22.6112 89.2921 22.4671 88.716 22.2271C88.1399 21.9871 87.6119 21.651 87.1798 21.171C86.7478 20.7389 86.4117 20.2108 86.1717 19.5387C85.9316 18.9147 85.7876 18.1946 85.7876 17.4745C85.7876 16.6583 85.9316 15.9863 86.1717 15.3622C86.4117 14.7381 86.7478 14.21 87.1798 13.778C87.6119 13.3459 88.1399 13.0099 88.716 12.7698C89.2921 12.5298 89.9162 12.4338 90.5403 12.4338C91.1644 12.4338 91.7884 12.5298 92.4125 12.7698C92.9886 13.0099 93.5167 13.3459 93.9487 13.778C94.3808 14.21 94.7168 14.7381 94.9569 15.3622C95.1969 15.9863 95.3409 16.7064 95.3409 17.4745C95.3409 18.1946 95.1969 18.9147 94.9569 19.5387Z" fill="white"/>
</g>
<g id="Group_5">
<g id="Group_6">
<path id="Vector_5" d="M20.0667 26.9795H14.69L4.99268 10.4652V26.9795H0V1.87207H5.37673L15.074 18.4343V1.87207H20.1147V26.9795H20.0667Z" fill="white"/>
<path id="Vector_6" d="M29.9561 22.3706C30.1481 22.4186 30.3402 22.4666 30.5322 22.4666C30.7242 22.4666 30.9162 22.5147 31.1083 22.5147C31.5883 22.5147 32.0204 22.4666 32.4524 22.3226C32.8845 22.1786 33.2686 21.9866 33.6526 21.7946C34.0367 21.5545 34.3727 21.2665 34.6607 20.9304C34.9488 20.5944 35.1888 20.2103 35.3808 19.7783L38.8853 23.2828C38.4533 23.9068 37.9252 24.4829 37.3491 24.963C36.773 25.4431 36.1489 25.8751 35.4769 26.2592C34.8048 26.5952 34.0847 26.8832 33.3646 27.0753C32.6445 27.2673 31.8764 27.3633 31.0603 27.3633C29.7641 27.3633 28.5159 27.1233 27.3638 26.6432C26.2116 26.1631 25.2035 25.4911 24.3393 24.5789C23.4752 23.7148 22.8031 22.6587 22.2751 21.4585C21.795 20.2583 21.507 18.9142 21.507 17.474C21.507 15.9858 21.747 14.6416 22.2751 13.3934C22.7551 12.1452 23.4752 11.1371 24.3393 10.273C25.2035 9.40887 26.2116 8.73678 27.3638 8.25672C28.5159 7.77665 29.7641 7.53662 31.0603 7.53662C31.8284 7.53662 32.5965 7.63264 33.3646 7.82466C34.1327 8.01669 34.8048 8.25672 35.4769 8.64077C36.1489 8.97682 36.773 9.40887 37.3491 9.93695C37.9252 10.465 38.4533 10.9931 38.8853 11.6652L29.9561 22.3706ZM32.4044 12.5293C32.1644 12.4333 31.9724 12.3853 31.7323 12.3853C31.4923 12.3853 31.3003 12.3373 31.0603 12.3373C30.3882 12.3373 29.8121 12.4333 29.236 12.6733C28.6599 12.9133 28.1799 13.2494 27.7478 13.6815C27.3157 14.1135 26.9797 14.6416 26.7397 15.2657C26.4996 15.8898 26.3556 16.6099 26.3556 17.378C26.3556 17.57 26.3556 17.762 26.4036 17.954C26.4036 18.1941 26.4516 18.3861 26.4996 18.6261C26.5476 18.8662 26.5956 19.0582 26.6437 19.2982C26.6917 19.4902 26.7877 19.6823 26.8837 19.8743L32.4044 12.5293Z" fill="white"/>
<path id="Vector_7" d="M51.895 8.11279L49.3987 11.7133L52.1351 15.6498L57.7038 8.11279H51.895ZM52.087 19.0583L49.3987 23.1388L51.895 26.9794H57.7518L52.087 19.0583Z" fill="white"/>
</g>
<path id="Vector_8" d="M48.1986 13.4895L44.4061 8.11279H38.5973L45.4142 17.3781L38.5973 26.9794H44.4061L48.1986 21.2186L50.7909 17.234L48.1986 13.4895Z" fill="#3E80FD"/>
</g>
</g>
<path id="Vector_9" d="M79.0187 0.912121C78.7307 0.624082 78.3947 0.384052 78.0106 0.240033C77.6265 0.0480065 77.1945 0 76.7624 0C76.3304 0 75.8983 0.096013 75.5143 0.240033C75.1302 0.432059 74.7942 0.624082 74.5061 0.912121C74.2181 1.20016 73.978 1.53621 73.834 1.92026C73.642 2.30431 73.594 2.73637 73.594 3.16843C73.594 3.60049 73.69 4.03255 73.834 4.4166C74.0261 4.80065 74.2181 5.1367 74.5061 5.42474C74.7942 5.71278 75.1302 5.95281 75.5143 6.09683C75.8983 6.28885 76.3304 6.33686 76.7624 6.33686C77.1945 6.33686 77.6265 6.24084 78.0106 6.09683C78.3947 5.9048 78.7307 5.71278 79.0187 5.42474C79.3068 5.1367 79.5468 4.80065 79.6908 4.4166C79.8829 4.03255 79.9309 3.60049 79.9309 3.16843C79.9309 2.73637 79.8348 2.30431 79.6908 1.92026C79.5468 1.53621 79.3548 1.15215 79.0187 0.912121Z" fill="#3E80FD"/>
</g>
</g>
</svg>
