<svg width="26" height="25" viewBox="0 0 26 25" fill="none" xmlns="http://www.w3.org/2000/svg">
<path d="M20.0313 10.1145V9.38013C20.0313 5.34992 16.8813 2.08325 13.0001 2.08325C9.11881 2.08325 5.96881 5.34992 5.96881 9.38013V10.1145C5.97007 10.9911 5.7199 11.8497 5.24798 12.5885L4.09381 14.3853C3.04069 16.026 3.84486 18.2562 5.67715 18.7749C10.4648 20.1322 15.5354 20.1322 20.323 18.7749C22.1553 18.2562 22.9594 16.026 21.9063 14.3864L20.7521 12.5895C20.2799 11.8509 20.0293 10.9923 20.0303 10.1155L20.0313 10.1145Z" stroke="white" stroke-opacity="0.25" stroke-width="2"/>
<path d="M8.3125 19.7915C8.99479 21.6123 10.8354 22.9165 13 22.9165C15.1646 22.9165 17.0052 21.6123 17.6875 19.7915" stroke="white" stroke-opacity="0.25" stroke-width="2" stroke-linecap="round"/>
</svg>
