<svg width="25" height="24" viewBox="0 0 25 24" fill="none" xmlns="http://www.w3.org/2000/svg">
<path fill-rule="evenodd" clip-rule="evenodd" d="M6.23303 2.04281C7.45003 0.832808 9.45403 1.04781 10.473 2.40981L11.735 4.09381C12.565 5.20181 12.491 6.74981 11.506 7.72881L11.268 7.96681C11.2412 8.06673 11.2384 8.17162 11.26 8.27281C11.323 8.68081 11.664 9.54481 13.092 10.9648C14.52 12.3848 15.39 12.7248 15.804 12.7888C15.9082 12.811 16.0162 12.8079 16.119 12.7798L16.527 12.3738C17.403 11.5038 18.747 11.3408 19.831 11.9298L21.741 12.9698C23.378 13.8578 23.791 16.0818 22.451 17.4148L21.03 18.8268C20.582 19.2718 19.98 19.6428 19.246 19.7118C17.436 19.8808 13.219 19.6648 8.78603 15.2578C4.64903 11.1438 3.85503 7.55581 3.75403 5.78781C3.70403 4.89381 4.12603 4.13781 4.66403 3.60381L6.23303 2.04281ZM9.27303 3.30881C8.76603 2.63181 7.82203 2.57781 7.29003 3.10681L5.72003 4.66681C5.39003 4.99481 5.23203 5.35681 5.25203 5.70281C5.33203 7.10781 5.97203 10.3448 9.84403 14.1948C13.906 18.2328 17.657 18.3538 19.107 18.2178C19.403 18.1908 19.697 18.0368 19.972 17.7638L21.392 16.3508C21.97 15.7768 21.843 14.7308 21.025 14.2868L19.115 13.2478C18.587 12.9618 17.969 13.0558 17.585 13.4378L17.13 13.8908L16.6 13.3588C17.13 13.8908 17.129 13.8918 17.128 13.8918L17.127 13.8938L17.124 13.8968L17.117 13.9028L17.102 13.9168C17.0595 13.9556 17.014 13.9911 16.966 14.0228C16.886 14.0758 16.78 14.1348 16.647 14.1838C16.377 14.2848 16.019 14.3388 15.577 14.2708C14.71 14.1378 13.561 13.5468 12.034 12.0288C10.508 10.5108 9.91203 9.36881 9.77803 8.50281C9.70903 8.06081 9.76403 7.70281 9.86603 7.43281C9.92259 7.28107 10.0029 7.1393 10.104 7.01281L10.136 6.97781L10.15 6.96281L10.156 6.95681L10.159 6.95381L10.161 6.95181L10.449 6.66581C10.877 6.23881 10.937 5.53181 10.534 4.99281L9.27303 3.30881Z" fill="#7F7F7F"/>
</svg>
