<svg width="16" height="16" viewBox="0 0 16 16" fill="none" xmlns="http://www.w3.org/2000/svg">
<path d="M12.6234 5.19218L12.2473 5.5676L12.6227 5.19218H12.6234ZM10.1995 10.6308L10.3865 11.1287L10.1995 10.6315V10.6308ZM4.28629 6.67968L3.97534 6.24831L4.28629 6.68039V6.67968ZM0.155295 14.7079C0.0557288 14.8077 -0.000132603 14.9429 2.36381e-07 15.0839C0.000133076 15.2248 0.0562492 15.3599 0.156004 15.4595C0.255758 15.559 0.39098 15.6149 0.531921 15.6148C0.672863 15.6146 0.807979 15.5585 0.907545 15.4588L0.155295 14.7079ZM4.20342 12.1594C4.30015 12.0591 4.35363 11.9249 4.35235 11.7856C4.35108 11.6463 4.29514 11.5131 4.1966 11.4146C4.09805 11.3162 3.96478 11.2604 3.82549 11.2592C3.6862 11.2581 3.55203 11.3117 3.45188 11.4085L4.20342 12.1594ZM10.0642 3.38168L12.2473 5.5676L12.9988 4.81677L10.8157 2.63085L10.0642 3.38168ZM5.67959 12.8875L2.76338 9.96848L2.01255 10.72L4.92804 13.6376L5.67959 12.8875ZM11.3703 9.62423L10.0125 10.1342L10.3865 11.1287L11.7443 10.6194L11.3703 9.62423ZM5.51454 5.62002L6.00684 4.27772L5.00879 3.91152L4.51721 5.25452L5.51454 5.62002ZM3.39521 7.57218C3.89954 7.43335 4.28275 7.3356 4.59654 7.11035L3.97534 6.2476C3.8535 6.33614 3.69413 6.38785 3.11329 6.54793L3.39521 7.57289V7.57218ZM4.51721 5.25452C4.30967 5.82118 4.2445 5.9756 4.14675 6.09035L4.95567 6.77956C5.20571 6.4856 5.33392 6.11089 5.51454 5.62002L4.51721 5.25452ZM4.59654 7.11035C4.729 7.01473 4.84942 6.90352 4.95567 6.77956L4.14675 6.09035C4.09615 6.14947 4.0386 6.20227 3.97534 6.2476L4.59654 7.11035ZM10.0125 10.1342C9.52442 10.3184 9.15254 10.4487 8.86071 10.7009L9.55629 11.5056C9.66963 11.4064 9.82334 11.3398 10.3865 11.1287L10.0125 10.1342ZM9.10438 12.5333C9.26375 11.9532 9.31546 11.7946 9.40329 11.672L8.53984 11.0529C8.3153 11.3667 8.21825 11.7492 8.07942 12.2521L9.10438 12.5333ZM8.86071 10.7016C8.74029 10.805 8.63263 10.924 8.53984 11.0529L9.404 11.672C9.44792 11.6104 9.49892 11.5544 9.55629 11.5056L8.86071 10.7009V10.7016ZM2.76338 9.96777C2.3058 9.50947 1.99555 9.19781 1.79438 8.94493C1.5918 8.69064 1.57125 8.58085 1.57055 8.53198L0.508045 8.53835C0.510879 8.9506 0.715587 9.29627 0.962795 9.60652C1.21071 9.91818 1.57267 10.2794 2.01184 10.7186L2.76338 9.96777ZM3.11329 6.54793C2.51405 6.71368 2.02105 6.84827 1.652 6.99702C1.28367 7.14435 0.934462 7.3441 0.729045 7.7011L1.65059 8.23093C1.67467 8.18843 1.74692 8.10343 2.04725 7.98302C2.34759 7.8626 2.77117 7.74431 3.39521 7.57218L3.11329 6.54793ZM1.57055 8.53127C1.56993 8.4259 1.59731 8.32225 1.64988 8.23093L0.729045 7.7011C0.582492 7.95567 0.506222 8.24461 0.508045 8.53835L1.57055 8.53127ZM4.92804 13.6376C5.37004 14.0796 5.73342 14.4451 6.04579 14.6938C6.35817 14.9431 6.70596 15.1485 7.12104 15.1492L7.12246 14.0867C7.07288 14.0867 6.96309 14.0662 6.70809 13.8629C6.45309 13.6603 6.14 13.3486 5.67959 12.8875L4.92804 13.6376ZM8.08013 12.2514C7.90659 12.8804 7.78829 13.3069 7.66717 13.6093C7.54534 13.9125 7.45963 13.9847 7.41713 14.0088L7.94342 14.9318C8.30396 14.7263 8.50442 14.375 8.65317 14.0046C8.80192 13.6334 8.93792 13.1369 9.10438 12.5333L8.07942 12.2521L8.08013 12.2514ZM7.12104 15.1492C7.40934 15.1492 7.69267 15.0749 7.94342 14.9318L7.41713 14.0088C7.3274 14.0601 7.2258 14.0869 7.12246 14.0867L7.12104 15.1492ZM12.2473 5.5676C13.0009 6.32127 13.5223 6.84472 13.841 7.27681C14.1555 7.70039 14.1916 7.92635 14.1534 8.10343L15.1918 8.32798C15.3264 7.70606 15.0785 7.16135 14.6953 6.64427C14.317 6.13427 13.7277 5.54564 12.9988 4.81677L12.2473 5.5676ZM11.7443 10.618C12.7084 10.2561 13.489 9.96423 14.0436 9.6561C14.6067 9.34443 15.0572 8.9506 15.1918 8.32798L14.1534 8.10343C14.1151 8.28052 13.989 8.47177 13.5279 8.72677C13.0583 8.98814 12.3677 9.24881 11.3703 9.62352L11.7443 10.618ZM10.8157 2.63085C10.0819 1.89631 9.48971 1.30201 8.97759 0.920931C8.45767 0.535598 7.90942 0.285556 7.28467 0.423681L7.51417 1.46068C7.69125 1.42172 7.91721 1.45714 8.34363 1.77447C8.77784 2.09677 9.30554 2.62164 10.0642 3.38168L10.8157 2.63085ZM6.00613 4.27702C6.37588 3.26906 6.63371 2.56993 6.89225 2.09535C7.14725 1.62785 7.33709 1.50035 7.51417 1.46068L7.28538 0.423681C6.66063 0.561098 6.26892 1.01868 5.95938 1.58676C5.65409 2.14777 5.3665 2.93685 5.00879 3.91152L6.00684 4.27772L6.00613 4.27702ZM0.906129 15.4588L4.20342 12.1594L3.45188 11.4085L0.154587 14.7079L0.906129 15.4588Z" fill="#818285"/>
</svg>
