<svg width="4" height="8" viewBox="0 0 4 8" fill="none" xmlns="http://www.w3.org/2000/svg">
<path fill-rule="evenodd" clip-rule="evenodd" d="M0.139562 0.0889887C0.10215 0.121052 0.0714245 0.160175 0.04914 0.204119C0.0268557 0.248063 0.0134497 0.295968 0.00968838 0.345096C0.00592709 0.394224 0.0118847 0.443612 0.0272198 0.490436C0.0425549 0.53726 0.066967 0.580604 0.0990615 0.617989L2.88956 3.87399L0.0990615 7.12999C0.06511 7.16706 0.0389595 7.21059 0.0221653 7.25797C0.00537109 7.30536 -0.00172424 7.35563 0.00130129 7.40582C0.00432682 7.456 0.0174112 7.50506 0.0397768 7.55008C0.0621424 7.5951 0.0933325 7.63517 0.131493 7.6679C0.169653 7.70063 0.214004 7.72535 0.261909 7.74059C0.309814 7.75583 0.360296 7.76129 0.410352 7.75664C0.460408 7.75198 0.509017 7.73731 0.553289 7.71349C0.597561 7.68967 0.636592 7.65719 0.668062 7.61799L3.66806 4.11799C3.72629 4.05003 3.7583 3.96348 3.7583 3.87399C3.7583 3.78449 3.72629 3.69795 3.66806 3.62999L0.668062 0.129989C0.60332 0.0545812 0.51129 0.00795868 0.412193 0.000364684C0.313097 -0.00722931 0.215038 0.0248265 0.139562 0.0894889V0.0889887Z" fill="#636363"/>
</svg>
