<svg width="26" height="25" viewBox="0 0 26 25" fill="none" xmlns="http://www.w3.org/2000/svg">
<path d="M22.375 16.7603V11.5603C22.375 7.09158 22.375 4.85929 21.0021 3.47075C19.6292 2.08325 17.4187 2.08325 13 2.08325C8.58021 2.08325 6.37083 2.08325 4.99792 3.47075C3.625 4.85929 3.625 7.09367 3.625 11.5603V16.7614C3.625 19.9864 3.625 21.5999 4.38958 22.3041C4.75417 22.6405 5.21458 22.852 5.70521 22.9083C6.73333 23.026 7.93438 21.9635 10.3354 19.8395C11.3979 18.901 11.9281 18.4312 12.5417 18.3083C12.8438 18.2458 13.1562 18.2458 13.4583 18.3083C14.0729 18.4312 14.6031 18.901 15.6646 19.8395C18.0656 21.9635 19.2667 23.026 20.2948 22.9072C20.7844 22.852 21.2458 22.6405 21.6104 22.3041C22.375 21.5999 22.375 19.9864 22.375 16.7603Z" stroke="white" stroke-opacity="0.25" stroke-width="2"/>
<path d="M16.125 6.25H9.875" stroke="white" stroke-opacity="0.25" stroke-width="2" stroke-linecap="round"/>
</svg>
