<svg width="17" height="18" viewBox="0 0 17 18" fill="none" xmlns="http://www.w3.org/2000/svg">
<path d="M7.27954 12.4419C7.28308 12.364 7.412 12.3328 7.44954 12.4008C7.62946 12.7196 7.93546 13.1878 8.28325 13.401C8.63033 13.6135 9.18637 13.6744 9.55187 13.69C9.62979 13.6935 9.66096 13.8217 9.59296 13.86C9.27421 14.0399 8.806 14.3459 8.59279 14.693C8.38029 15.0401 8.31937 15.5968 8.30379 15.9623C8.30025 16.0402 8.17133 16.0707 8.13379 16.0027C7.95387 15.6839 7.64787 15.2164 7.30079 15.0032C6.95371 14.79 6.39696 14.7298 6.03146 14.7142C5.95354 14.7107 5.92308 14.5818 5.99108 14.5442C6.30983 14.3643 6.77733 14.0583 6.99054 13.7105C7.20375 13.3634 7.26396 12.8067 7.27954 12.4419ZM13.0985 11.7336C13.0928 11.6556 12.9568 11.6231 12.9165 11.6896C12.7946 11.8901 12.6182 12.1309 12.4227 12.2513C12.2272 12.3718 11.9319 12.4185 11.6981 12.4369C11.6202 12.4426 11.5883 12.5786 11.6542 12.619C11.8547 12.7408 12.0962 12.9165 12.2159 13.1127C12.3363 13.3082 12.3838 13.6036 12.4015 13.8373C12.4079 13.9152 12.5432 13.9471 12.5842 13.8805C12.7061 13.6808 12.8817 13.4392 13.078 13.3195C13.2735 13.1991 13.5681 13.1516 13.8019 13.1339C13.8798 13.1276 13.9124 12.9923 13.8458 12.9512C13.6453 12.8293 13.4038 12.6537 13.2841 12.4575C13.1637 12.262 13.1169 11.9673 13.0985 11.7336ZM10.4153 3.57851L10.2439 3.36176C9.58021 2.5238 9.24871 2.10447 8.86267 2.16609C8.47662 2.22843 8.29175 2.72993 7.92271 3.73364L7.82779 3.99289C7.72225 4.27834 7.66983 4.42072 7.56996 4.52555C7.46867 4.63039 7.33196 4.68493 7.05712 4.79472L6.80708 4.89459L6.63142 4.96543C5.78142 5.30543 5.35358 5.4988 5.29904 5.87422C5.24096 6.27443 5.64612 6.61726 6.45646 7.30222L6.66612 7.4793C6.89633 7.67409 7.01179 7.77184 7.07696 7.9043C7.14354 8.03676 7.15275 8.18976 7.17187 8.49576L7.18887 8.77414C7.25475 9.8508 7.28804 10.3891 7.63796 10.5747C7.98787 10.7603 8.42279 10.4706 9.29262 9.89047L9.51787 9.7403C9.76579 9.57526 9.88904 9.49238 10.03 9.47043C10.1717 9.44776 10.3147 9.48743 10.6009 9.56676L10.8616 9.63901C11.8688 9.91809 12.3725 10.0576 12.6466 9.77218C12.9214 9.48672 12.7854 8.96468 12.512 7.9213L12.4419 7.65143C12.364 7.35464 12.3257 7.20659 12.347 7.05997C12.3682 6.91334 12.4475 6.78443 12.6055 6.5273L12.7493 6.29355C13.306 5.38972 13.5844 4.9378 13.4038 4.57514C13.2239 4.21389 12.7047 4.18059 11.6655 4.11614L11.3971 4.09914C11.1017 4.08072 10.9544 4.07151 10.8262 4.00351C10.6987 3.93551 10.6037 3.81651 10.4153 3.57851ZM6.25812 10.183C4.74442 10.9225 3.48429 12.0941 3.009 13.4938C2.47633 10.1596 3.21583 8.0063 4.40087 6.66755C4.50287 6.87651 4.63604 7.04934 4.75504 7.18464C5.00296 7.46514 5.35854 7.76547 5.71979 8.07076L5.97975 8.29034L6.10017 8.39305C6.10371 8.43839 6.10725 8.49222 6.11079 8.56093L6.13204 8.90447C6.16037 9.36843 6.18871 9.82105 6.25812 10.183Z" fill="white" fill-opacity="0.79"/>
</svg>
