<svg width="13" height="8" viewBox="0 0 13 8" fill="none" xmlns="http://www.w3.org/2000/svg">
<path fill-rule="evenodd" clip-rule="evenodd" d="M0.387785 6.86134C0.440515 6.92286 0.504853 6.97339 0.577122 7.01004C0.64939 7.04669 0.728172 7.06874 0.808965 7.07492C0.889758 7.08111 0.970979 7.07131 1.04798 7.04609C1.12499 7.02087 1.19627 6.98072 1.25775 6.92794L6.61239 2.33884L11.967 6.92794C12.028 6.98378 12.0996 7.02678 12.1775 7.0544C12.2554 7.08202 12.3381 7.09369 12.4206 7.08871C12.5032 7.08374 12.5839 7.06222 12.6579 7.02544C12.7319 6.98866 12.7978 6.93737 12.8517 6.87461C12.9055 6.81185 12.9461 6.73892 12.9712 6.66013C12.9963 6.58135 13.0052 6.49833 12.9976 6.41601C12.9899 6.33369 12.9658 6.25375 12.9266 6.18094C12.8875 6.10814 12.834 6.04395 12.7696 5.9922L7.01366 1.05856C6.9019 0.962793 6.75957 0.910156 6.61239 0.910156C6.46521 0.910156 6.32289 0.962793 6.21112 1.05856L0.455212 5.9922C0.3312 6.09867 0.254527 6.25001 0.242039 6.41298C0.22955 6.57595 0.282267 6.73722 0.388607 6.86134H0.387785Z" fill="#636363"/>
</svg>
